<svg width="129" height="27" viewBox="0 0 129 27" fill="none" xmlns="http://www.w3.org/2000/svg">
<path d="M3.15992 25.6008V12.2238H0.842645V8.39683L3.15992 8.22128V7.27331C3.15992 6.03275 3.37058 4.90922 3.7919 3.90273C4.21322 2.89624 4.89202 2.0887 5.82829 1.48012C6.76456 0.871547 8.01683 0.567259 9.58508 0.567259C10.3107 0.567259 10.9778 0.63748 11.5864 0.777921C12.1949 0.918362 12.6865 1.0588 13.061 1.19924L12.113 4.99115C11.8087 4.87411 11.5044 4.79219 11.2002 4.74537C10.8959 4.67515 10.6033 4.64004 10.3224 4.64004C9.69041 4.64004 9.19887 4.839 8.84777 5.23692C8.49667 5.61142 8.32112 6.24341 8.32112 7.13287V8.18617H11.4459V12.2238H8.32112V25.6008H3.15992ZM20.5063 26.0222C19.0316 26.0222 17.6389 25.6711 16.3282 24.9688C15.0408 24.2432 13.9992 23.2016 13.2034 21.844C12.4075 20.463 12.0096 18.8129 12.0096 16.8935C12.0096 14.9507 12.4075 13.3006 13.2034 11.943C13.9992 10.5854 15.0408 9.55547 16.3282 8.85327C17.6389 8.12766 19.0316 7.76485 20.5063 7.76485C21.9809 7.76485 23.3619 8.12766 24.6493 8.85327C25.9367 9.55547 26.9783 10.5854 27.7741 11.943C28.5699 13.3006 28.9678 14.9507 28.9678 16.8935C28.9678 18.8129 28.5699 20.463 27.7741 21.844C26.9783 23.2016 25.9367 24.2432 24.6493 24.9688C23.3619 25.6711 21.9809 26.0222 20.5063 26.0222ZM20.5063 21.844C21.5596 21.844 22.3554 21.3993 22.8938 20.5099C23.4321 19.597 23.7013 18.3915 23.7013 16.8935C23.7013 15.3721 23.4321 14.1666 22.8938 13.2772C22.3554 12.3877 21.5596 11.943 20.5063 11.943C19.4296 11.943 18.622 12.3877 18.0837 13.2772C17.5687 14.1666 17.3112 15.3721 17.3112 16.8935C17.3112 18.3915 17.5687 19.597 18.0837 20.5099C18.622 21.3993 19.4296 21.844 20.5063 21.844ZM39.1037 26.0222C37.6291 26.0222 36.2364 25.6711 34.9256 24.9688C33.6382 24.2432 32.5966 23.2016 31.8008 21.844C31.005 20.463 30.607 18.8129 30.607 16.8935C30.607 14.9507 31.005 13.3006 31.8008 11.943C32.5966 10.5854 33.6382 9.55547 34.9256 8.85327C36.2364 8.12766 37.6291 7.76485 39.1037 7.76485C40.5783 7.76485 41.9593 8.12766 43.2467 8.85327C44.5341 9.55547 45.5757 10.5854 46.3715 11.943C47.1674 13.3006 47.5653 14.9507 47.5653 16.8935C47.5653 18.8129 47.1674 20.463 46.3715 21.844C45.5757 23.2016 44.5341 24.2432 43.2467 24.9688C41.9593 25.6711 40.5783 26.0222 39.1037 26.0222ZM39.1037 21.844C40.157 21.844 40.9528 21.3993 41.4912 20.5099C42.0296 19.597 42.2987 18.3915 42.2987 16.8935C42.2987 15.3721 42.0296 14.1666 41.4912 13.2772C40.9528 12.3877 40.157 11.943 39.1037 11.943C38.027 11.943 37.2195 12.3877 36.6811 13.2772C36.1662 14.1666 35.9087 15.3721 35.9087 16.8935C35.9087 18.3915 36.1662 19.597 36.6811 20.5099C37.2195 21.3993 38.027 21.844 39.1037 21.844ZM56.4372 26.0222C54.2837 26.0222 52.5516 25.2146 51.2409 23.5995C49.9535 21.9611 49.3098 19.7257 49.3098 16.8935C49.3098 14.9976 49.6492 13.3708 50.328 12.0132C51.0302 10.6322 51.9314 9.57888 53.0315 8.85327C54.155 8.12766 55.3254 7.76485 56.5425 7.76485C57.5022 7.76485 58.3097 7.9287 58.9651 8.25639C59.6205 8.58409 60.2408 9.02882 60.8259 9.59058L60.6153 6.92221V0.988582H65.7765V25.6008H61.5633L61.2122 23.8804H61.0717C60.4631 24.489 59.7492 25.004 58.93 25.4253C58.1108 25.8232 57.2798 26.0222 56.4372 26.0222ZM57.7714 21.8089C58.3331 21.8089 58.8364 21.6919 59.2811 21.4578C59.7492 21.2238 60.194 20.8141 60.6153 20.229V13.1016C60.1706 12.6803 59.6907 12.3877 59.1758 12.2238C58.6842 12.06 58.2044 11.9781 57.7363 11.9781C56.917 11.9781 56.1914 12.376 55.5594 13.1718C54.9274 13.9442 54.6114 15.1614 54.6114 16.8233C54.6114 18.532 54.8806 19.7959 55.419 20.6152C55.9807 21.411 56.7649 21.8089 57.7714 21.8089ZM69.4716 25.6008V8.18617H74.6328V25.6008H69.4716ZM72.0346 5.62313C71.1685 5.62313 70.4663 5.37736 69.928 4.88581C69.3896 4.39427 69.1205 3.73888 69.1205 2.91964C69.1205 2.1004 69.3896 1.44501 69.928 0.953472C70.4663 0.461929 71.1685 0.216157 72.0346 0.216157C72.9007 0.216157 73.6029 0.461929 74.1412 0.953472C74.6796 1.44501 74.9487 2.1004 74.9487 2.91964C74.9487 3.73888 74.6796 4.39427 74.1412 4.88581C73.6029 5.37736 72.9007 5.62313 72.0346 5.62313ZM76.4012 25.6008L82.7561 13.8389L76.7874 2.70898H82.5454L84.5467 7.02754C84.8042 7.54249 85.0617 8.10425 85.3191 8.71282C85.6 9.3214 85.8926 9.9885 86.1969 10.7141H86.3373C86.5948 9.9885 86.8406 9.3214 87.0747 8.71282C87.3321 8.10425 87.5779 7.54249 87.812 7.02754L89.6377 2.70898H95.15L89.2164 14.0847L95.5362 25.6008H89.7781L87.496 20.9312C87.2151 20.3226 86.9342 19.7257 86.6533 19.1406C86.3959 18.532 86.1033 17.8766 85.7756 17.1744H85.6351C85.3777 17.8766 85.1202 18.532 84.8627 19.1406C84.6052 19.7257 84.3478 20.3226 84.0903 20.9312L81.9486 25.6008H76.4012ZM102.229 26.0222C100.333 26.0222 98.9519 25.4019 98.0858 24.1613C97.2432 22.8973 96.8219 21.1769 96.8219 19.0001V8.18617H101.983V18.333C101.983 19.5736 102.159 20.4396 102.51 20.9312C102.861 21.3993 103.411 21.6334 104.16 21.6334C104.815 21.6334 105.365 21.4812 105.81 21.1769C106.255 20.8727 106.735 20.3811 107.25 19.7023V8.18617H112.411V25.6008H108.198L107.811 23.1782H107.706C106.98 24.0443 106.185 24.7348 105.319 25.2497C104.452 25.7647 103.423 26.0222 102.229 26.0222ZM121.201 26.0222C120.054 26.0222 118.872 25.7998 117.655 25.3551C116.461 24.9103 115.419 24.3252 114.53 23.5995L116.847 20.3694C117.643 20.9546 118.404 21.411 119.129 21.7387C119.878 22.043 120.616 22.1951 121.341 22.1951C122.114 22.1951 122.676 22.0664 123.027 21.8089C123.378 21.528 123.553 21.1652 123.553 20.7205C123.553 20.3226 123.378 19.9949 123.027 19.7374C122.699 19.48 122.266 19.2459 121.728 19.0352C121.189 18.8012 120.616 18.5671 120.007 18.333C119.305 18.0521 118.603 17.701 117.901 17.2797C117.222 16.8584 116.648 16.32 116.18 15.6646C115.712 14.9858 115.478 14.1666 115.478 13.2069C115.478 11.5919 116.087 10.2811 117.304 9.27459C118.544 8.2681 120.159 7.76485 122.149 7.76485C123.483 7.76485 124.653 7.99892 125.66 8.46705C126.69 8.91178 127.568 9.41503 128.293 9.97679L125.976 13.0665C125.367 12.5984 124.759 12.2355 124.15 11.9781C123.542 11.7206 122.933 11.5919 122.324 11.5919C120.99 11.5919 120.323 12.0483 120.323 12.9612C120.323 13.5229 120.651 13.9559 121.306 14.2602C121.985 14.5411 122.769 14.8454 123.659 15.1731C124.408 15.4306 125.133 15.77 125.835 16.1913C126.561 16.5892 127.158 17.1276 127.626 17.8064C128.118 18.4618 128.363 19.3278 128.363 20.4045C128.363 21.9728 127.755 23.307 126.538 24.4071C125.321 25.4838 123.542 26.0222 121.201 26.0222Z" fill="#68A118"/>
</svg>
